<?xml version="1.0" encoding="utf-8"?>
<!-- Generator: Adobe Illustrator 22.0.1, SVG Export Plug-In . SVG Version: 6.00 Build 0)  -->
<svg version="1.1" id="Livello_1" xmlns="http://www.w3.org/2000/svg" xmlns:xlink="http://www.w3.org/1999/xlink" x="0px" y="0px"
	 viewBox="0 0 76.2 134.1" style="enable-background:new 0 0 76.2 134.1;" xml:space="preserve">
<style type="text/css">
	.st0{fill:#A22A26;}
</style>
<g id="Livello_29">
	<path class="st0" d="M72.9,118.8c3.4,3.4,3.4,8.9,0,12.3c-3.4,3.4-8.9,3.4-12.3,0c0,0,0,0-0.1-0.1l0,0L2.9,73.4l0,0
		c-1.6-1.6-2.6-3.8-2.6-6.2c0-2.7,1.3-5.2,3.2-6.8l-0.1-0.1L61.1,2.7l0,0c0,0,0,0,0.1-0.1c3.4-3.4,8.9-3.4,12.3,0s3.4,8.9,0,12.3
		c0,0,0,0-0.1,0.1l0,0l-52,52.2L72.9,118.8L72.9,118.8L72.9,118.8"/>
</g>
<g id="Livello_1_1_">
</g>
</svg>
